<?xml version="1.0" encoding="UTF-8" standalone="no"?>
<!DOCTYPE svg PUBLIC "-//W3C//DTD SVG 1.1//EN" "http://www.w3.org/Graphics/SVG/1.1/DTD/svg11.dtd">
<svg width="100%" height="100%" viewBox="0 20 375 275" version="1.1" xmlns="http://www.w3.org/2000/svg" xmlns:xlink="http://www.w3.org/1999/xlink" xml:space="preserve" xmlns:serif="http://www.serif.com/" style="fill-rule:evenodd;clip-rule:evenodd;stroke-linejoin:round;stroke-miterlimit:2;">
    <g transform="matrix(1,0,0,0.919355,0,22.1731)">
        <rect x="0.193" y="113.632" width="374.712" height="161.315" style="fill:white;"/>
    </g>
    <g transform="matrix(1,0,0,1,1.75629,-21.4722)">
        <g transform="matrix(1,0,0,1,-1.86686,-1.83952)">
            <rect x="0" y="0" width="375" height="150" style="fill:rgb(45,200,247);fill-opacity:0.2;"/>
        </g>
        <g transform="matrix(1,0,0,1,13.4961,65.9453)">
            <path d="M17.876,205.54C17.853,205.439 15.636,195.33 20.164,186.934C24.691,178.539 34.354,174.837 34.452,174.8L34.893,174.634L34.998,175.095C35.02,175.196 37.237,185.304 32.71,193.7C28.183,202.095 18.519,205.798 18.422,205.834L17.98,206L17.876,205.54ZM34.288,175.758C32.352,176.59 24.712,180.235 20.889,187.325C17.065,194.417 18.218,202.803 18.586,204.877C20.521,204.046 28.158,200.407 31.985,193.309C35.809,186.218 34.656,177.833 34.288,175.758Z" style="fill:rgb(241,241,241);fill-rule:nonzero;"/>
        </g>
        <g transform="matrix(1,0,0,1,13.4961,65.9453)">
            <path d="M29.25,190.755C21.115,195.65 17.982,205.372 17.982,205.372C17.982,205.372 28.039,207.158 36.174,202.263C44.31,197.369 47.443,187.647 47.443,187.647C47.443,187.647 37.386,185.86 29.25,190.755Z" style="fill:rgb(241,241,241);fill-rule:nonzero;"/>
        </g>
        <g transform="matrix(1,0,0,1,13.4961,65.9453)">
            <path d="M152.453,112.29C152.577,111.65 152.559,110.99 152.401,110.357C152.242,109.724 151.947,109.134 151.536,108.628C151.124,108.122 150.607,107.712 150.02,107.427C149.433,107.142 148.791,106.99 148.139,106.98L144.371,97.506L138.055,98.391L143.564,111.696C143.62,112.793 144.077,113.831 144.847,114.613C145.618,115.396 146.649,115.868 147.745,115.942C148.84,116.015 149.925,115.683 150.793,115.01C151.661,114.337 152.251,113.369 152.453,112.29Z" style="fill:rgb(159,97,106);fill-rule:nonzero;"/>
        </g>
        <g transform="matrix(1,0,0,1,13.4961,65.9453)">
            <path d="M140.817,108.961L138.86,104.294L126.665,81.08L127.328,38.126L127.455,38.109C135.259,37.078 140.539,73.033 140.76,74.565L148.465,100.917L150.299,106.726L140.817,108.961Z" style="fill:rgb(129,222,250);fill-rule:nonzero;"/>
        </g>
        <g transform="matrix(1,0,0,1,13.4961,65.9453)">
            <path d="M122.078,199.537L128.008,199.536L130.828,176.666L122.077,176.666L122.078,199.537Z" style="fill:rgb(159,97,106);fill-rule:nonzero;"/>
        </g>
        <g transform="matrix(1,0,0,1,13.4961,65.9453)">
            <path d="M120.566,197.601L132.244,197.601C134.217,197.601 136.11,198.385 137.505,199.78C138.901,201.176 139.685,203.069 139.685,205.042L139.685,205.284L120.566,205.285L120.566,197.601Z" style="fill:rgb(47,46,65);fill-rule:nonzero;"/>
        </g>
        <g transform="matrix(1,0,0,1,13.4961,65.9453)">
            <path d="M67.559,190.503L72.424,193.893L87.815,176.742L80.634,171.739L67.559,190.503Z" style="fill:rgb(159,97,106);fill-rule:nonzero;"/>
        </g>
        <g transform="matrix(1,0,0,1,13.4961,65.9453)">
            <path d="M67.425,188.05L77.006,194.726L77.006,194.726C78.625,195.855 79.73,197.58 80.077,199.523C80.424,201.466 79.985,203.467 78.857,205.086L78.719,205.285L63.032,194.354L67.425,188.05Z" style="fill:rgb(47,46,65);fill-rule:nonzero;"/>
        </g>
        <g transform="matrix(1,0,0,1,13.4961,65.9453)">
            <path d="M118.82,194.161L118.563,151.257L114.833,124.279L107.877,148.004L107.863,148.023L82.657,184.618L72.848,179.648L72.902,179.521C73.501,178.095 87.626,144.611 91.422,144.611C91.754,144.634 92.086,144.576 92.39,144.442C92.694,144.309 92.962,144.103 93.169,143.843C94.283,142.355 93.376,139.198 93.366,139.166C92.279,134.66 95.012,133.125 95.556,132.869L97.02,102.651L97.172,102.661L136.856,105.445L135.191,143.225L131.61,192.725L131.487,192.739L118.82,194.161Z" style="fill:rgb(47,46,65);fill-rule:nonzero;"/>
        </g>
        <g transform="matrix(1,0,0,1,13.4961,65.9453)">
            <path d="M137.462,112.141L137.291,112.127L94.611,108.686L94.717,94.565L96.806,57.693L96.818,57.668L105.324,39.199L111.355,36.468L120.153,36.005L120.175,36.011L128.204,38L136.557,97.961L137.462,112.141Z" style="fill:rgb(129,222,250);fill-rule:nonzero;"/>
        </g>
        <g transform="matrix(1,0,0,1,13.4961,65.9453)">
            <path d="M121.532,31.272C126.977,28.295 128.978,21.468 126.002,16.022C123.025,10.577 116.197,8.575 110.752,11.552C105.306,14.529 103.305,21.357 106.282,26.802C109.259,32.248 116.086,34.249 121.532,31.272Z" style="fill:rgb(159,97,106);fill-rule:nonzero;"/>
        </g>
        <g transform="matrix(1,0,0,1,13.4961,65.9453)">
            <path d="M104.841,24.233L104.841,19.855C104.841,19.855 101.31,15.696 105.194,14.649C105.194,14.649 106.253,4.174 115.433,9.062C115.433,9.062 128.144,6.967 126.732,14.3C126.732,14.3 129.909,12.385 128.85,17.274L126.802,25.148C126.802,25.148 127.791,19.947 124.613,19.248L122.848,18.201C122.848,18.201 117.905,23.089 110.49,17.153C110.49,17.153 107.312,16.395 107.665,19.537C108.019,22.68 104.841,24.233 104.841,24.233Z" style="fill:rgb(47,46,65);fill-rule:nonzero;"/>
        </g>
        <g transform="matrix(1,0,0,1,13.4961,65.9453)">
            <path d="M114.972,101.595C114.979,100.943 114.843,100.297 114.573,99.703C114.304,99.109 113.907,98.581 113.412,98.157C112.916,97.733 112.334,97.422 111.705,97.248C111.077,97.073 110.418,97.038 109.775,97.146L104.368,88.501L98.314,90.506L106.12,102.606C106.372,103.675 107.008,104.614 107.906,105.245C108.805,105.877 109.904,106.157 110.995,106.032C112.086,105.908 113.094,105.387 113.827,104.569C114.56,103.751 114.967,102.693 114.972,101.595Z" style="fill:rgb(159,97,106);fill-rule:nonzero;"/>
        </g>
        <g transform="matrix(1,0,0,1,13.4961,65.9453)">
            <path d="M101.008,98.87L91.227,79.012L91.235,78.963C91.275,78.744 95.212,56.882 98.223,48.846C101.254,40.76 105.402,39.136 105.577,39.071L105.664,39.039L109.384,42.606L104.231,76.995L109.785,93.58L101.008,98.87Z" style="fill:rgb(129,222,250);fill-rule:nonzero;"/>
        </g>
        <g transform="matrix(1,0,0,1,13.4961,65.9453)">
            <rect x="323.686" y="0" width="18.939" height="18.939" style="fill:rgb(241,241,241);fill-rule:nonzero;"/>
        </g>
        <g transform="matrix(1,0,0,1,13.4961,65.9453)">
            <rect x="175.472" y="73.696" width="18.938" height="18.939" style="fill:rgb(241,241,241);fill-rule:nonzero;"/>
        </g>
        <g transform="matrix(1,0,0,1,13.4961,65.9453)">
            <rect x="186.102" y="8.536" width="149.727" height="75.799" style="fill:white;fill-rule:nonzero;"/>
        </g>
        <g transform="matrix(1,0,0,1,13.4961,65.9453)">
            <path d="M337.064,85.57L184.866,85.57L184.866,7.301L337.064,7.301L337.064,85.57ZM187.337,83.1L334.594,83.1L334.594,9.772L187.337,9.772L187.337,83.1Z" style="fill:rgb(229,229,229);fill-rule:nonzero;"/>
        </g>
        <g transform="matrix(1,0,0,1,13.4961,65.9453)">
            <rect x="204.074" y="35.125" width="115.198" height="3.82" style="fill:rgb(229,229,229);fill-rule:nonzero;"/>
        </g>
        <g transform="matrix(1,0,0,1,13.4961,65.9453)">
            <rect x="204.074" y="44.39" width="115.198" height="3.82" style="fill:rgb(229,229,229);fill-rule:nonzero;"/>
        </g>
        <g transform="matrix(1,0,0,1,13.4961,65.9453)">
            <rect x="297.863" y="58.069" width="21.409" height="3.315" style="fill:rgb(129,222,250);fill-rule:nonzero;"/>
        </g>
        <g transform="matrix(1,0,0,1,13.4961,65.9453)">
            <path d="M157.272,205.983L0.412,205.983C0.303,205.983 0.198,205.94 0.121,205.863C0.043,205.786 0,205.681 0,205.572C0,205.462 0.043,205.358 0.121,205.28C0.198,205.203 0.303,205.16 0.412,205.16L157.272,205.16C157.381,205.16 157.486,205.203 157.563,205.28C157.64,205.358 157.684,205.462 157.684,205.572C157.684,205.681 157.64,205.786 157.563,205.863C157.486,205.94 157.381,205.983 157.272,205.983Z" style="fill:rgb(203,203,203);fill-rule:nonzero;"/>
        </g>
    </g>
</svg>
